# xmcd CD database file
#
# Track frame offsets:
#	150
#	20337
#	31283
#	44919
#	75023
#	107101
#	140121
#	163043
#	181479
#
# Disc length: 2692 seconds
#
# Revision: 0
# Processed by: cddbd v1.5.2PL0 Copyright (c) Steve Scherf et al.
# Submitted via: Feurio! 1.68 - http://www.feurio.com
#
DISCID=720a8209
DTITLE=B.B. King - Piazza Blues Festival   Bellinzona, Switzerland   06-30-01  
DTITLE=Disc 1
DYEAR=1900
DGENRE=
TTITLE0=opening instrumental
TTITLE1=intro B.B. King
TTITLE2=Let The Good Times Roll
TTITLE3=I'll Survive
TTITLE4=Bad Case Of Love
TTITLE5=Peace Of Mind
TTITLE6=Caledonia
TTITLE7=summertime???
TTITLE8=Early In The Morning
EXTD=
EXTT0=
EXTT1=
EXTT2=
EXTT3=
EXTT4=
EXTT5=
EXTT6=
EXTT7=
EXTT8=
PLAYORDER=
